General
      Complete name : D:BRRip-GopoRebecca.1940.DVDRip.H264.AAC.GopoRebecca.1940.DVDRip.H264.AAC.Gopo.mp4
      Format : MPEG-4
      Format profile : Base Media
      Codec ID : isom
      File size : 1.55 GiB
      Duration : 2h 11mn
      Overall bit rate : 1 691 Kbps
      Encoded date : UTC 2010-04-13 09:51:42
      Tagged date : UTC 2010-04-13 09:51:42
   Video #1
      ID : 1
      Format : AVC
      Format/Info : Advanced Video Codec
      Format profile : High@L4.1
      Format settings, CABAC : Yes
      Format settings, ReFrames : 5 frames
      Codec ID : avc1
      Codec ID/Info : Advanced Video Coding
      Duration : 2h 11mn
      Bit rate mode : Variable
      Bit rate : 1 504 Kbps
      Maximum bit rate : 6 949 Kbps
      Width : 720 pixels
      Height : 478 pixels
      Display aspect ratio : 1.506
      Frame rate mode : Constant
      Frame rate : 23.976 fps
      Resolution : 24 bits
      Colorimetry : 4:2:0
      Scan type : Progressive
      Bits/(Pixel*Frame) : 0.182
      Stream size : 1.38 GiB (89%)
      Writing library : x264 core 92 r1523 25ca5b0
      Encoding settings : cabac=1 / ref=5 / deblock=1:-3:1 / analyse=0x3:0x133 / me=umh / subme=7 / psy=1 / psy_rd=1.00:0.08 / mixed_ref=1 / me_range=32 / chroma_me=1 / trellis=2 / 8x8dct=1 / cqm=0 / deadzone=21,11 / fast_pskip=0 / chroma_qp_offset=-3 / threads=3 / sliced_threads=0 / nr=0 / decimate=1 / interlaced=0 / constrained_intra=0 / bframes=3 / b_pyramid=2 / b_adapt=2 / b_bias=0 / direct=1 / wpredb=1 / wpredp=2 / keyint=250 / keyint_min=25 / scenecut=40 / intra_refresh=0 / rc_lookahead=40 / rc=2pass / mbtree=1 / bitrate=1504 / ratetol=1.0 / qcomp=0.60 / qpmin=10 / qpmax=51 / qpstep=4 / cplxblur=20.0 / qblur=0.5 / vbv_maxrate=50000 / vbv_bufsize=50000 / ip_ratio=1.40 / aq=1:1.00 / nal_hrd=none
      Encoded date : UTC 2010-04-12 10:45:15
      Tagged date : UTC 2010-04-13 09:56:06
   Audio #2
      ID : 2
      Format : AAC
      Format/Info : Advanced Audio Codec
      Format version : Version 4
      Format profile : LC
      Format settings, SBR : No
      Format settings, PS : Yes
      Codec ID : 40
      Duration : 2h 11mn
      Bit rate mode : Variable
      Bit rate : 182 Kbps
      Maximum bit rate : 199 Kbps
      Channel(s) : 2 channels
      Channel positions : Front: L R
      Sampling rate : 48.0 KHz
      Resolution : 16 bits
      Stream size : 171 MiB (11%)
      Encoded date : UTC 2010-04-13 09:55:43
      Tagged date : UTC 2010-04-13 09:56:06
	Sample : YES
	Subtitle : English,Romanian

PLOT
When a naive young woman marries a rich widower and settles in his gigantic mansion, she finds the memory of the first wife maintaining a grip on her husband and the servants.
Director: Alfred Hitchcock
CASTING 

      Laurence Olivier	... 	'Maxim' de Winter
	Joan Fontaine	... 	The Second Mrs. de Winter
	George Sanders	... 	Jack Favell
	Judith Anderson	... 	Mrs. Danvers
	Nigel Bruce	... 	Major Giles Lacy
	Reginald Denny	... 	Frank Crawley
	C. Aubrey Smith	... 	Colonel Julyan
	Gladys Cooper	... 	Beatrice Lacy
	Florence Bates	... 	Mrs. Edythe Van Hopper
	Melville Cooper	... 	Coroner
	Leo G. Carroll	... 	Dr. Baker
	Leonard Carey	... 	Ben
	Lumsden Hare	... 	Tabbs
	Edward Fielding	... 	Frith
	Forrester Harvey	... 	Chalcroft

SOURCE: Rebecca.1940.CRITERION.NTSC.DVD5.DVDR.RO.iNT

Notes: For best performance I suggest you to use KMPlayer(find it with google) for playback
These movies were made especially for PC and they don't play on a PS3.If you want to re-encode for PS3 or test for other devices be my guests.
I'll ask everybody to stop with the ''it doesn't work'',''it's out of sync'' comments because I tested the movies before I uploaded them and they work fine.